<?xml version="1.0" encoding="UTF-8" standalone="no"?>
<!DOCTYPE svg PUBLIC "-//W3C//DTD SVG 1.1//EN" "http://www.w3.org/Graphics/SVG/1.1/DTD/svg11.dtd">
<svg width="100%" height="100%" viewBox="0 0 375 567" version="1.1" xmlns="http://www.w3.org/2000/svg" xmlns:xlink="http://www.w3.org/1999/xlink" xml:space="preserve" xmlns:serif="http://www.serif.com/" style="fill-rule:evenodd;clip-rule:evenodd;stroke-linejoin:round;stroke-miterlimit:2;">
    <g transform="matrix(4.16667,0,0,4.16667,1.00409,-2.50267)">
        <path d="M0.004,0.844L0.002,0.844L0.002,0.838L0.004,0.844Z" style="fill:rgb(13,49,130);"/>
    </g>
    <g transform="matrix(4.16667,0,0,4.16667,1.00409,-2.50267)">
        <path d="M0.004,0.844L0.718,3.238C1.557,6.051 2.429,9.189 2.861,12.365L2.861,124.683C2.431,127.867 1.556,131.021 0.715,133.849L0.002,136.249L89.432,136.249L88.717,133.851C87.876,131.023 87.003,127.868 86.573,124.685L86.573,12.366C87.004,9.19 87.877,6.052 88.716,3.24L89.433,0.844L0.004,0.844Z" style="fill:white;"/>
    </g>
    <g transform="matrix(4.16667,0,0,4.16667,1.00409,-2.50267)">
        <path d="M70.517,67.881L44.661,103.091L18.913,67.893L18.909,118.162C18.909,119.996 18.389,121.891 17.902,123.523L17.605,124.519L28.921,124.519L28.624,123.523C28.136,121.891 27.618,119.996 27.618,118.162L27.612,92.96L44.6,116.936L61.818,92.986L61.815,118.163C61.815,119.996 61.294,121.891 60.807,123.524L60.51,124.52L71.828,124.52L71.529,123.524C71.043,121.891 70.523,119.996 70.523,118.163L70.517,67.881Z" style="fill:rgb(90,90,90);"/>
    </g>
    <g transform="matrix(4.16667,0,0,4.16667,1.00409,-2.50267)">
        <path d="M19.118,12.566L19.419,13.581C19.917,15.25 20.446,17.188 20.446,19.054L20.446,48.865C20.446,61.306 29.467,68.735 44.577,68.735C59.632,68.735 68.985,60.52 68.985,47.297L68.985,19.055C68.985,17.181 69.515,15.249 70.012,13.584L70.315,12.567L58.768,12.567L59.071,13.582C59.568,15.252 60.098,17.19 60.098,19.055L60.098,47.643C60.098,55.951 54.376,60.912 44.789,60.912C35.399,60.912 29.332,55.951 29.332,48.274L29.332,19.055C29.332,17.184 29.862,15.249 30.36,13.584L30.662,12.567L19.118,12.566Z" style="fill:rgb(90,90,90);"/>
    </g>
    <g transform="matrix(4.16667,0,0,4.16667,1.00409,-2.50267)">
        <path d="M52.766,71.497C49.916,71.497 48.951,73.036 48.623,75.148L48.481,75.987L47.106,75.987L46.799,77.71L48.172,77.71L46.43,87.429C46.204,88.659 45.775,88.985 44.975,88.985C44.482,88.985 44.072,88.862 43.641,88.636L42.842,90.38C43.417,90.768 44.381,91.014 45.262,91.014C48.091,91.014 48.522,89.232 48.85,87.448L50.613,77.71L53.441,77.71L53.729,75.987L50.899,75.987L51.063,75.065C51.289,73.753 51.802,73.302 52.807,73.302C53.359,73.302 53.995,73.445 54.508,73.753L55.309,72.153C54.714,71.763 53.771,71.497 52.766,71.497Z" style="fill:rgb(137,137,137);"/>
    </g>
    <g transform="matrix(4.16667,0,0,4.16667,1.00409,-2.50267)">
        <path d="M41.672,75.722C37.633,75.722 35.932,79.021 35.932,82.731C35.932,85.295 37.265,86.608 39.703,86.608C43.804,86.608 45.424,83.184 45.424,79.493C45.424,76.276 43.086,75.722 41.672,75.722ZM41.344,77.524C42.493,77.524 42.943,78.304 42.943,79.616C42.943,81.4 42.391,84.763 40.012,84.763C38.762,84.763 38.412,83.901 38.412,82.692C38.412,80.827 38.925,77.524 41.344,77.524Z" style="fill:rgb(137,137,137);"/>
    </g>
</svg>
