<?xml version="1.0" encoding="UTF-8" standalone="no"?>
<!-- Created with Inkscape (http://www.inkscape.org/) -->

<svg
   width="101.48286mm"
   height="101.48286mm"
   viewBox="0 0 101.48287 101.48287"
   version="1.1"
   id="svg5"
   xml:space="preserve"
   inkscape:version="1.2.2 (732a01da63, 2022-12-09)"
   sodipodi:docname="csu-white.svg"
   xmlns:inkscape="http://www.inkscape.org/namespaces/inkscape"
   xmlns:sodipodi="http://sodipodi.sourceforge.net/DTD/sodipodi-0.dtd"
   xmlns="http://www.w3.org/2000/svg"
   xmlns:svg="http://www.w3.org/2000/svg"><sodipodi:namedview
     id="namedview7"
     pagecolor="#ffffff"
     bordercolor="#666666"
     borderopacity="1.0"
     inkscape:showpageshadow="2"
     inkscape:pageopacity="0.0"
     inkscape:pagecheckerboard="0"
     inkscape:deskcolor="#d1d1d1"
     inkscape:document-units="mm"
     showgrid="false"
     inkscape:zoom="0.84096521"
     inkscape:cx="-60.050047"
     inkscape:cy="274.68437"
     inkscape:window-width="3776"
     inkscape:window-height="2126"
     inkscape:window-x="-11"
     inkscape:window-y="-11"
     inkscape:window-maximized="1"
     inkscape:current-layer="layer1" /><defs
     id="defs2" /><g
     inkscape:label="Layer 1"
     inkscape:groupmode="layer"
     id="layer1"
     transform="translate(-68.499032,-54.026567)"><g
       id="g212"
       transform="matrix(0.35277778,0,0,0.35277778,68.499032,54.025189)"><path
         fill-rule="nonzero"
         fill="#ffffff"
         fill-opacity="1"
         d="m 159.24219,225.24609 c -5.14453,0.50782 -10.78125,1.71094 -15.33203,1.6211 -4.55079,0.0898 -10.19532,-1.11328 -15.33594,-1.6211 -0.82031,-0.0937 -1.42188,0.50782 -1.42188,0.50782 -3,6.39843 14.22657,9.9375 16.70703,9.82421 2.48438,0.11329 19.80079,-3.42578 16.80469,-9.82421 0,0 -0.60937,-0.60157 -1.42187,-0.50782"
         id="path182" /><path
         fill-rule="nonzero"
         fill="#ffffff"
         fill-opacity="1"
         d="m 243.36719,134.42578 c -0.70703,-5.86328 -5.86719,-7.6875 -10.41797,-9.11328 -13.16797,-4.14453 -18.73438,1.01563 -22.57813,1.42578 4.14453,-4.7539 3.13282,-12.66015 -2.32031,-13.57422 -10.23828,-1.61328 -7.40234,9.42578 -4.96484,14.58594 1.61718,3.24219 3.64062,8.60547 8.69922,8.19141 6.17968,-0.50391 5.2539,-5.5625 14.17578,-6.26563 0,0 11.13281,0.8125 10.94531,4.35547 -0.41406,5.26172 -6.19141,7.18359 -9.92969,8.49219 -5.57031,1.83203 -11.95703,-0.89844 -16.50781,4.26172 -1.40625,1.71875 -2.53125,3.84375 -2.03125,5.76562 0.50781,1.92969 0.72656,1.11328 6.89062,1.61328 -3.44531,4.26172 -5.46875,10.74219 -5.5664,16.41406 -0.19141,15.28907 -4.04688,27.125 -2.53125,32.40235 7.39844,-8.92188 7.28515,-22.375 8.50781,-33.11328 0.70313,-5.57813 2.72656,-11.75 5.47266,-15.79297 3.13281,-4.75781 9.11328,-4.96875 13.05078,-7.89453 3.74609,-2.73828 9.60937,-7.39453 9.10547,-11.75391"
         id="path184" /><path
         fill-rule="nonzero"
         fill="#ffffff"
         fill-opacity="1"
         d="m 106.69141,155.80469 c -2.02344,-3.55078 -7.187504,-2.84375 -9.617191,-4.26172 -3.933594,-2.53516 -3.738281,-8.00391 -0.09375,-11.33203 4.761721,-4.36328 17.117191,9.61328 14.378911,20.54297 -1.21875,0.39843 -1.82032,-0.29688 -4.66797,-4.94922 z m 13.37109,22.5625 c 4.15625,-6.3711 8.51172,-20.25 5.98047,-26.11328 -4.04688,-1.625 -8.91406,-4.76954 -11.85547,-9.22266 -2.9375,-4.24609 -4.64844,-9 -9.80859,-10.41797 -3.44532,-1.22266 -7.304691,-0.50781 -10.12891,1.01563 -4.554687,2.6289 -5.664062,8.89453 -6.378906,13.85546 -0.296875,10.22657 1.613281,25.32032 6.066406,34.83204 2.636719,7.08593 8.71094,18.83203 16.29688,29.86328 -2.1211,-17.51172 7.59765,-29.04688 9.82812,-33.8125"
         id="path186" /><path
         fill-rule="nonzero"
         fill="#ffffff"
         fill-opacity="1"
         d="m 190.12109,151.54297 c -2.32812,1.41797 -7.49609,0.71094 -9.60937,4.26172 -2.83203,4.65234 -3.44922,5.34765 -4.66016,4.94922 -2.73047,-10.92969 9.60938,-24.90625 14.3711,-20.54297 3.74218,3.32812 3.85156,8.79687 -0.10157,11.33203 z m 2.83203,-17.91406 c -2.83203,-1.52344 -6.67578,-2.23829 -10.11328,-1.01563 -5.16015,1.41797 -6.78906,6.17188 -9.83984,10.41797 -2.91797,4.45312 -7.78516,7.59766 -11.83203,9.22266 -2.53906,5.86328 1.82812,19.74218 5.97656,26.11328 2.32422,4.76562 11.93359,16.30078 9.91797,33.8125 7.58984,-11.03125 13.65625,-22.77735 16.19141,-29.86328 4.46093,-9.51172 6.48046,-24.60547 6.07421,-34.83204 -0.60156,-4.96093 -1.8125,-11.22656 -6.375,-13.85546"
         id="path188" /><path
         fill-rule="nonzero"
         fill="#ffffff"
         fill-opacity="1"
         d="m 143.96094,169.17187 v -0.0117 c -0.043,0 -0.0703,0.004 -0.10938,0.004 l -0.0898,-0.004 v 0.0117 c -4.83985,0.10938 -7.45703,4.19532 -11.94922,8.89844 -7.79297,8.5 -23.79687,29.65625 -12.15234,39.6836 5.16015,4.45312 11.95312,7.49218 21.26171,4.65234 2.33204,-1.60938 1.00782,-6.37109 -0.19921,-8.51172 -4.35938,-5.66016 -11.13672,-3.42578 -13.0625,-6.26172 -1.83203,-2.73437 -0.60938,-4.87109 0.5039,-6.27344 1.6211,-2.02343 4.2461,-1.52343 6.47656,-0.91796 3.95704,0.89453 6.64063,2.55078 9.1211,4.97656 v 0.18359 c 0.0312,-0.0352 0.0625,-0.0547 0.0898,-0.0898 0.0391,0.0352 0.0664,0.0547 0.10938,0.0898 v -0.1914 c 2.3789,-2.42579 5.16406,-4.07813 9.10937,-4.96875 2.125,-0.60547 4.85938,-1.10547 6.38281,0.91796 1.21094,1.40235 2.32422,3.53907 0.50782,6.27344 -1.92969,2.83594 -8.60547,0.60156 -12.96485,6.26172 -1.20703,2.14063 -2.63672,6.90234 -0.3164,8.51172 9.42578,2.83984 16.10547,-0.19922 21.26562,-4.65234 11.75,-10.02735 -4.24609,-31.1836 -12.14844,-39.6836 -4.38671,-4.69922 -7.11328,-8.78906 -11.83593,-8.89844"
         id="path190" /><path
         fill-rule="nonzero"
         fill="#ffffff"
         fill-opacity="1"
         d="m 80.585938,113.16406 c -5.375,0.91407 -6.382813,8.82032 -2.34375,13.57422 -3.730469,-0.41015 -9.304688,-5.57031 -22.464844,-1.42578 -4.550781,1.42578 -9.71875,3.25 -10.429688,9.11328 -0.507812,4.35938 5.367188,9.01563 9.109375,11.75391 3.855469,2.92578 9.929688,3.13672 13.066407,7.89453 2.625,4.04297 4.75,10.21484 5.472656,15.79297 1.207031,10.73828 1.007812,24.1914 8.5,33.11328 1.40625,-5.27735 -2.433594,-17.11328 -2.523438,-32.40235 -0.121093,-5.67187 -2.242187,-12.15234 -5.574218,-16.41406 6.171875,-0.5 6.269531,0.31641 6.777343,-1.61328 0.601563,-1.92187 -0.605468,-4.04687 -2.027343,-5.76562 -4.453125,-5.16016 -10.824219,-2.42969 -16.503907,-4.26172 -3.742187,-1.3086 -9.503906,-3.23047 -9.816406,-8.49219 -0.195312,-3.54297 10.941406,-4.35547 10.941406,-4.35547 8.898438,0.70313 7.882813,5.76172 14.0625,6.26563 5.0625,0.41406 7.191407,-4.94922 8.816407,-8.19141 2.429687,-5.16016 5.257812,-16.19922 -5.0625,-14.58594"
         id="path192" /><path
         fill-rule="nonzero"
         fill="#ffffff"
         fill-opacity="1"
         d="m 19.191406,97.527344 c 0.410157,-0.0625 0.84375,-0.132813 1.292969,-0.210938 0.08984,-0.230468 0.175781,-0.460937 0.265625,-0.691406 -0.519531,0.300781 -1.03125,0.589844 -1.558594,0.902344"
         id="path194" /><path
         fill-rule="nonzero"
         fill="#ffffff"
         fill-opacity="1"
         d="m 252.52734,64.414063 h 0.004 z M 219.49609,242.30078 c -3.45703,-1.51562 -5.61718,-4.96094 -6.23828,-8.81641 -0.79687,-5.66406 2.36328,-12.34765 5.11328,-16.80859 3.80078,-6.36328 12.48438,-17.5 22.4961,-24.89062 C 255.08984,181.25 265,178.3125 261.32812,175.88672 c -2.5625,-1.72266 -16.05078,5.67578 -18.70703,7.08984 -15.14453,7.79297 -36.01172,30.36719 -38.46093,47.08203 -1.60938,10.94141 8.58593,19.28907 18.0039,19.75 -21.91406,16.24219 -49.01953,25.85938 -78.32812,25.85938 -29.3125,0 -56.417971,-9.61719 -78.332034,-25.85938 9.421875,-0.46093 19.621094,-8.80859 18.003907,-19.75 -2.457032,-16.71484 -23.414063,-39.28906 -38.4375,-47.08203 -2.664063,-1.41406 -16.167969,-8.8125 -18.722657,-7.08984 -3.679687,2.42578 6.230469,5.36328 20.449219,15.89844 10.027344,7.39062 18.621094,18.52734 22.394531,24.89062 2.863282,4.46094 6.035157,11.14453 5.21875,16.80859 -0.621093,3.85547 -2.863281,7.30079 -6.242187,8.81641 -3.875,1.78516 -7.820313,1.44141 -11.710938,0.16016 -12.109375,-10.74219 -22.238281,-23.66797 -29.75,-38.16407 8.898438,12.49219 20.9375,26.64844 27.660157,26.96875 10.929687,0.60547 -10.636719,-28.54687 -25.464844,-40.6914 -3.578125,-2.9375 -7.671875,-6.38672 -8.472656,-11.85938 -0.632813,-3.95703 1.414062,-6.57812 5.304687,-6.77734 5.9375,-0.20703 21.375,7.79297 21.570313,7.49219 -26.78125,-48.08594 14.21875,-72.37891 -2.75,-82.914065 -5.585938,-3.53125 -17.019532,-0.425781 -24.070313,0.800781 -0.449219,0.07813 -0.882812,0.148438 -1.292969,0.210938 0.527344,-0.3125 1.039063,-0.601563 1.558594,-0.902344 61.714844,-35.726562 72.726563,0.945313 91.58984,17.90234 2.96875,2.74219 16.35938,0 18.91797,-3.13281 3.375,-4.05078 10.11719,-18.632811 2.44922,-28.249999 C 123.45313,70.164063 83.132813,33.632813 43.992188,57.839844 68.1875,29.789063 103.97266,12.003906 143.83594,12.003906 c 39.87109,0 75.66015,17.796875 99.85547,45.855469 -39.22657,-24.25 -79.46485,12.300781 -89.83985,25.285156 -7.55859,9.617188 -0.91015,24.199219 2.46094,28.249999 2.65625,3.13281 16.04687,5.875 19.01562,3.13281 18.86329,-16.957027 29.89063,-53.632809 91.58985,-17.898434 0.51953,0.296875 1.03125,0.589844 1.55469,0.898438 -0.41016,-0.0625 -0.83985,-0.132813 -1.28907,-0.210938 -7.04687,-1.222656 -18.57812,-4.332031 -24.05468,-0.800781 -16.99219,10.535155 23.91015,34.828125 -2.76954,82.914065 0.20704,0.30078 15.65235,-7.69922 21.57422,-7.49219 3.88672,0.19922 5.9375,2.82031 5.32032,6.77734 -0.81641,5.47266 -5.01172,8.92188 -8.48829,11.85938 -14.83203,12.14453 -36.39843,41.29687 -25.5625,40.6914 6.78907,-0.32421 18.85938,-14.49609 27.77344,-26.99609 -7.50781,14.49219 -17.625,27.41406 -29.72656,38.15625 -3.85547,1.30859 -7.84766,1.67578 -11.75391,-0.125 z M 143.83594,0.00390625 C 64.523438,0.00390625 0,64.527344 0,143.83594 c 0,79.3125 64.523438,143.83593 143.83594,143.83593 79.30859,0 143.83203,-64.52343 143.83203,-143.83593 0,-79.308596 -64.52344,-143.83203375 -143.83203,-143.83203375"
         id="path196" /></g></g></svg>
